<?xml version="1.0" standalone="no"?>
<!DOCTYPE svg PUBLIC "-//W3C//DTD SVG 20010904//EN"
 "http://www.w3.org/TR/2001/REC-SVG-20010904/DTD/svg10.dtd">
<svg version="1.0" xmlns="http://www.w3.org/2000/svg"
 width="905.000000pt" height="1280.000000pt" viewBox="0 0 905.000000 1280.000000"
 preserveAspectRatio="xMidYMid meet">

<g transform="translate(0.000000,1280.000000) scale(0.100000,-0.100000)"
fill="#000000" stroke="none">
<path d="M4481 8630 c-12 -6 -60 -36 -105 -69 -44 -32 -166 -114 -271 -183
-245 -161 -392 -276 -530 -413 -162 -162 -289 -341 -403 -570 -66 -133 -130
-330 -179 -555 -24 -109 -26 -135 -30 -470 -2 -195 0 -389 5 -430 20 -153 122
-807 137 -870 8 -36 22 -132 31 -215 24 -221 22 -217 102 -263 86 -50 329
-176 552 -288 176 -88 390 -216 510 -305 42 -32 74 -49 93 -49 31 0 270 34
354 51 29 6 106 34 170 63 65 29 130 57 143 61 14 4 105 55 203 112 98 57 184
106 193 110 8 3 87 49 174 102 145 88 162 101 199 156 22 33 61 89 86 125 54
76 94 151 134 253 l30 74 3 814 c3 892 6 849 -59 1104 -65 258 -117 383 -247
603 -86 144 -185 270 -310 394 -136 136 -261 233 -557 430 -134 90 -264 178
-289 196 -49 35 -102 47 -139 32z m609 -629 c138 -104 355 -329 434 -449 143
-219 224 -404 289 -667 47 -189 52 -235 52 -537 0 -354 14 -327 -166 -337 -68
-4 -139 -4 -156 1 -32 9 -33 10 -33 66 -1 203 -22 632 -35 712 -32 193 -103
426 -172 565 -127 253 -325 440 -555 524 -270 99 -563 11 -805 -242 -162 -170
-251 -351 -332 -677 -45 -183 -49 -221 -61 -605 -6 -192 -16 -362 -22 -377 -9
-24 -18 -28 -81 -38 -40 -6 -108 -18 -152 -25 -65 -11 -82 -11 -93 -1 -20 19
-29 550 -13 710 18 171 88 446 151 595 72 167 210 385 324 508 166 180 272
266 621 498 l240 160 240 -160 c132 -88 278 -189 325 -224z m-486 -321 c213
-35 428 -242 535 -515 49 -125 106 -341 120 -460 11 -93 34 -715 27 -723 -3
-2 -203 41 -445 97 l-441 101 -317 -90 c-174 -49 -318 -88 -320 -87 -1 2 2
147 7 323 12 356 26 469 84 672 68 235 137 364 260 487 167 167 311 225 490
195z m266 -1706 c228 -52 433 -94 455 -94 22 1 60 5 85 10 39 8 445 39 522 40
59 0 58 6 58 -430 l0 -400 -25 -67 c-38 -101 -96 -203 -182 -320 l-77 -104
-140 -83 c-352 -208 -492 -285 -646 -354 -160 -72 -170 -74 -325 -98 -111 -17
-167 -22 -185 -15 -15 5 -108 59 -207 120 -198 121 -421 244 -553 305 -47 22
-154 75 -238 119 -178 94 -163 69 -187 307 -17 168 -42 330 -56 368 -15 38
-79 479 -73 496 6 15 29 20 294 61 313 48 356 57 675 150 228 66 330 92 355
88 19 -2 222 -47 450 -99z"/>
<path d="M4065 5955 c-49 -12 -137 -33 -194 -46 l-104 -23 7 -125 c4 -69 9
-128 12 -132 2 -4 41 5 87 20 65 22 109 29 212 35 71 3 134 11 139 16 5 5 -4
25 -24 50 -27 34 -31 47 -27 75 3 20 0 40 -7 51 -8 11 -11 34 -8 61 2 23 3 43
1 42 -2 0 -44 -11 -94 -24z"/>
<path d="M4190 5930 l0 -40 60 0 60 0 0 40 0 40 -60 0 -60 0 0 -40z"/>
<path d="M4360 5930 c0 -37 2 -40 28 -40 15 0 37 -3 50 -6 18 -5 22 -2 22 17
0 58 -10 69 -56 69 l-44 0 0 -40z"/>
<path d="M4510 5931 l0 -41 46 0 45 0 -3 38 c-3 36 -4 37 -45 40 l-43 3 0 -40z"/>
<path d="M4646 5962 c-3 -5 -3 -25 0 -44 l6 -35 130 -12 c119 -12 131 -11 148
4 23 21 20 28 -32 66 -39 28 -46 29 -144 29 -57 0 -105 -4 -108 -8z"/>
<path d="M4980 5844 l-65 -36 3 -86 c2 -48 5 -93 8 -100 4 -14 87 -13 317 4
l77 6 0 104 c0 57 -1 104 -2 104 -2 0 -55 9 -118 20 -63 11 -124 20 -135 20
-11 0 -49 -16 -85 -36z"/>
<path d="M5489 5858 c-5 -9 -9 -64 -9 -122 l0 -106 48 0 c127 2 375 19 384 28
6 6 7 47 2 105 l-7 96 -71 5 c-39 3 -131 7 -204 8 -117 3 -135 1 -143 -14z"/>
<path d="M4566 5820 c-21 -26 -26 -42 -26 -85 0 -61 25 -98 73 -109 22 -5 29
-2 38 18 10 20 8 31 -10 59 -13 22 -21 51 -21 79 0 64 -20 78 -54 38z"/>
<path d="M4234 5788 c3 -29 6 -68 6 -86 l0 -33 52 3 51 3 -2 75 c-1 41 -5 78
-7 82 -3 4 -28 8 -56 8 l-51 0 7 -52z"/>
<path d="M4718 5816 c-32 -5 -58 -13 -58 -17 0 -4 12 -45 27 -91 26 -82 28
-113 17 -218 -5 -55 -5 -55 31 -74 35 -19 36 -19 63 1 25 19 28 28 38 129 6
60 16 129 23 154 15 65 15 66 -36 97 -45 26 -52 28 -105 19z"/>
<path d="M3319 5783 l-177 -35 13 -56 c7 -32 18 -90 25 -129 11 -67 14 -73 33
-68 59 14 341 65 358 65 22 0 23 8 6 155 l-12 100 -35 2 c-19 0 -114 -15 -211
-34z"/>
<path d="M4417 5764 c-4 -4 -7 -27 -7 -51 l0 -43 50 0 50 0 0 39 c0 22 -3 42
-8 45 -15 9 -78 17 -85 10z"/>
<path d="M3940 5580 c-36 -10 -81 -19 -101 -19 -25 -1 -39 -7 -43 -18 -8 -20
4 -292 14 -298 3 -2 58 10 121 26 83 22 136 30 194 29 l80 0 -3 137 c-2 76 -6
141 -10 145 -4 3 -47 9 -97 12 -71 4 -104 1 -155 -14z"/>
<path d="M4240 5515 l0 -65 29 0 c34 0 41 14 41 81 l0 49 -35 0 -35 0 0 -65z"/>
<path d="M4330 5515 l0 -66 33 3 32 3 0 60 0 60 -32 3 -33 3 0 -66z"/>
<path d="M4587 5573 c-4 -3 -7 -35 -7 -70 l0 -64 33 3 32 3 -4 60 c-2 33 -8
63 -15 67 -14 10 -31 10 -39 1z"/>
<path d="M4470 5506 c0 -57 3 -65 21 -71 32 -10 40 6 37 71 -3 56 -4 59 -30
62 l-28 3 0 -65z"/>
<path d="M4950 5485 c0 -65 2 -75 18 -75 9 0 91 -9 182 -19 91 -11 166 -18
168 -16 2 1 4 44 5 94 l2 91 -187 0 -188 0 0 -75z"/>
<path d="M5485 5473 c-4 -49 -7 -95 -8 -103 -1 -9 7 -16 20 -18 24 -4 384 36
391 43 3 2 -4 41 -14 85 l-18 80 -182 0 -182 0 -7 -87z"/>
<path d="M3392 5465 c-100 -18 -184 -34 -187 -36 -2 -3 2 -45 10 -94 8 -50 17
-112 20 -138 5 -39 10 -48 23 -45 9 3 99 18 199 34 167 26 183 31 183 49 0 11
-9 72 -20 135 -11 63 -20 118 -20 123 0 9 4 10 -208 -28z"/>
<path d="M4393 5383 c-53 -4 -53 -4 -53 -39 l0 -34 49 0 c26 0 69 3 95 6 45 7
47 8 44 38 -3 29 -6 31 -43 32 -22 0 -64 -1 -92 -3z"/>
<path d="M4574 5358 c3 -18 10 -36 15 -41 5 -5 40 -5 83 -1 65 8 73 11 70 29
-7 38 -22 45 -99 45 l-75 0 6 -32z"/>
<path d="M4230 5340 c0 -39 1 -40 34 -40 38 0 50 17 40 56 -5 19 -13 24 -40
24 -33 0 -34 -1 -34 -40z"/>
<path d="M4775 5312 l-110 -48 -3 -41 c-3 -40 -2 -42 30 -47 66 -11 320 -37
324 -33 4 4 -119 216 -126 216 -3 0 -54 -21 -115 -47z"/>
<path d="M5020 5341 c0 -5 25 -61 56 -124 l56 -115 62 2 61 1 32 80 c48 119
51 116 -97 142 -141 25 -170 27 -170 14z"/>
<path d="M5650 5309 c-69 -5 -138 -10 -154 -11 -26 -3 -32 -10 -60 -83 -17
-44 -35 -86 -40 -93 -4 -7 -6 -15 -5 -16 4 -4 531 46 537 50 2 1 -5 37 -15 80
l-18 79 -60 1 c-33 1 -116 -2 -185 -7z"/>
<path d="M4135 5248 c-31 -93 -106 -411 -99 -418 23 -23 353 -108 472 -122 68
-8 125 -11 127 -7 3 4 1 101 -5 215 -5 115 -10 239 -10 277 l0 67 -240 0
c-184 0 -242 -3 -245 -12z"/>
<path d="M3937 5222 c-74 -14 -131 -30 -133 -37 -5 -12 143 -263 176 -298 16
-17 19 -8 54 163 21 99 36 184 34 189 -2 4 -61 -3 -131 -17z"/>
<path d="M3440 5112 c-107 -25 -196 -46 -198 -47 -5 -5 58 -269 66 -275 8 -8
467 72 478 83 4 4 -2 17 -13 30 -30 34 -120 191 -132 232 -6 21 -10 20 -201
-23z"/>
<path d="M4750 5102 c0 -20 110 -197 151 -244 l24 -27 108 48 c59 27 108 52
109 56 0 4 -16 33 -37 65 -34 52 -43 60 -79 66 -23 3 -88 17 -146 30 -127 29
-130 29 -130 6z"/>
<path d="M4680 4897 c0 -106 4 -187 9 -187 9 0 151 79 151 84 0 6 -143 273
-151 281 -5 5 -9 -64 -9 -178z"/>
<path d="M5765 5049 c-77 -10 -159 -19 -182 -20 l-43 -2 1 -96 c1 -53 4 -158
8 -234 l6 -138 62 40 c102 66 301 338 311 426 3 34 1 45 -9 44 -8 -1 -77 -10
-154 -20z"/>
<path d="M5328 4976 c-32 -36 -58 -71 -58 -78 1 -18 185 -304 194 -300 9 2 8
325 -1 395 -5 46 -6 47 -42 47 -32 0 -43 -8 -93 -64z"/>
<path d="M5110 4804 c-41 -25 -92 -56 -112 -70 l-37 -23 101 -178 c55 -98 102
-179 103 -181 6 -6 255 131 255 140 0 12 -196 317 -219 340 -15 16 -21 14 -91
-28z"/>
<path d="M3582 4765 c-129 -29 -235 -55 -237 -57 -12 -11 131 -104 261 -171
l152 -77 82 148 c46 81 85 150 87 155 2 4 -4 10 -14 14 -10 3 -30 15 -45 25
-14 10 -32 18 -40 17 -7 0 -118 -25 -246 -54z"/>
<path d="M3964 4719 c-8 -17 -46 -87 -84 -155 l-68 -123 76 -49 c93 -59 181
-107 186 -101 7 7 166 362 164 365 -2 1 -48 16 -103 33 -55 17 -109 37 -120
45 -28 21 -32 20 -51 -15z"/>
<path d="M4798 4649 l-98 -49 0 -68 c0 -37 -3 -139 -7 -226 l-6 -159 59 6 c41
4 81 18 130 44 204 110 234 128 234 136 0 13 -203 367 -210 366 -3 0 -49 -22
-102 -50z"/>
<path d="M4206 4442 c-41 -102 -73 -189 -70 -194 3 -5 38 -25 77 -44 40 -20
98 -52 130 -72 57 -35 58 -35 140 -29 140 11 127 -12 129 218 1 110 2 214 2
231 l1 32 -130 17 c-71 10 -146 19 -167 22 l-36 5 -76 -186z"/>
</g>
</svg>
